# xmcd
#
# Track frame offsets:
#	150
#	33752
#	58228
#	86751
#	118249
#	167479
#	206488
#	251109
#
# Disc length: 3939 seconds
#
# Revision: 0
# Processed by: cddbd v1.5.1PL0 Copyright (c) Steve Scherf et al.
# Submitted via: dBpowerAMP V4.0
#
DISCID=6c0f6108
DTITLE=Johnny Sketch And The Dirty Notes - Live at the Spleaf
DYEAR=2004
DGENRE=
TTITLE0=Saucy Jack
TTITLE1=Curb
TTITLE2=Big Blow (Africafunk)
TTITLE3=Gretchen
TTITLE4=H.B.I.
TTITLE5=F.U.W.G.
TTITLE6=Bandicoot
TTITLE7=Sherm
EXTD=
EXTT0=
EXTT1=
EXTT2=
EXTT3=
EXTT4=
EXTT5=
EXTT6=
EXTT7=
PLAYORDER=
